<svg xmlns="http://www.w3.org/2000/svg" width="59.7928554" height="60.2000013" fill="currentColor"
   viewBox="0 0 15.820193 15.927917">
   <path fill="currentColor"
      d="M239.6851 109.13401c-.23812-.29105-.29104-.9525-.18521-2.16959.10584-1.56104.23813-1.87854.9525-2.51354.52917-.47625 1.13771-.74083 1.69334-.74083 5.37104-.10583 10.76854 0 11.2977.21167 1.19063.44979 1.64042 1.21708 1.77271 3.06916.10583 1.19063.0529 1.85208-.18521 2.14313-.50271.60854-14.84312.60854-15.34583 0m12.64708-2.59292.0794-1.00542-1.53458.0794c-1.50813.0794-1.53459.10583-1.56105.87312-.0265 1.00542.0794 1.05834 1.66688 1.05834h1.27zm-10.39812-4.25979c-.47625-.34396-.52917-.68792-.52917-4.259792 0-3.148541.0794-3.889375.39688-4.101041.52916-.343958 10.58333-.343958 11.1125 0 .3175.211666.39687.978958.39687 4.206874 0 2.169579-.10583 4.048129-.21167 4.180419-.13229.10583-2.56645.23812-5.42395.29104-4.25979.0529-5.31813 0-5.74146-.3175m9.39271-4.259792v-2.513541h-7.9375v5.027083h7.9375z"
      style="fill-opacity:1;stroke-width:.0264583"
      transform="translate(-239.44792 -93.662498)" />
</svg>