<svg xmlns="http://www.w3.org/2000/svg" width="58.839942" height="15.67861mm"
   viewBox="0 0 15.568067 15.678611">
   <path fill="currentColor"
      d="M5.9586868 15.4007976c-1.6404165-.3704166-3.6247925-1.772708-4.6566674-3.3072912C-1.0792303 8.5745484-.100272 3.6797574 3.4716038 1.324966c5.7414576-3.8099995 13.2027067 1.1377082 11.9591651 7.9639573-.5556249 2.9104163-3.0162496 5.450416-6.0060409 6.1118742-1.613958.3704167-1.852083.3704167-3.4660412 0m2.725208-3.2543746c.3175-.8202082-.4497916-1.613958-1.2699998-1.2964581-.4233333.15875-.6614583.8466665-.5027083 1.3758331.15875.4497916 1.5874998.396875 1.7727081-.079375m.1058333-2.963333c.0529167-.3174999.5027083-1.0054165 1.0054166-1.5081247 1.0054165-1.0054166 1.1112498-1.7462498.5291666-3.201458-.4497917-1.0583332-1.2435416-1.5345831-2.6193747-1.5345831-.79375 0-1.2170832.1852083-1.9314581.8995832C4.688687 4.8968406 4.6622286 5.161424 5.6411868 5.7435072c.7408333.4233333.7672916.4233333 1.1906249-.2116667.47625-.7408332 1.2435415-.8466665 1.7462498-.2645833.2645833.3175.15875.5820833-.6085416 1.4287499-.8995832.9789582-1.4552082 2.407708-1.1377082 2.9104163.079375.1322916.5291666.2116666 1.0054165.1852083.6879166-.0264584.8995833-.15875.9525-.6085416" />
</svg>