<svg xmlns="http://www.w3.org/2000/svg" width="59.9999887" height="59.9999924"
   viewBox="0 0 15.874997 15.874999">
   <path fill="currentColor"
      d="M6.5881222 14.7902062c-.4497916-1.4287498-1.2170832-1.7462498-2.5929163-1.0583332l-1.0054166.5291666-.6879166-.6879166-.6879165-.6879166.5556249-1.0583332c.6879166-1.3758331.396875-2.090208-1.0847915-2.5135413-1.031875-.3175-1.0847916-.396875-1.0847916-1.3758332s.0529167-1.0583332 1.0847916-1.3758331c1.5081248-.4233333 1.8256247-1.1906249 1.0583332-2.487083l-.5820833-.9789583.714375-.7408332.7143748-.7408333 1.0583332.5291666c1.3758332.714375 2.090208.4233333 2.5135414-1.0583332C6.8791639.0529164 6.9585389-3e-7 7.937497-3e-7c.9789574 0 1.0583324.0529167 1.3758324 1.0847915.4233333 1.4816665 1.1641665 1.7991665 2.5929163 1.1641666l1.0847916-.5027083.6614582.6879166.6614583.6614582-.5820833.9789582c-.7672916 1.2964582-.4497916 2.0637498 1.0583332 2.487083 1.0318749.3175 1.0847915.396875 1.0847915 1.3758332s-.0529166 1.0583332-1.0847915 1.3758332c-1.4816665.4233333-1.7727081 1.1377082-1.0847915 2.5135413l.5556249 1.0583332-.6879166.6879166-.6879166.6879166-1.0583332-.555625c-1.3758331-.6879165-2.090208-.3968749-2.5135413 1.0847916-.3175 1.0318749-.396875 1.0847915-1.3758324 1.0847915-.9789582 0-1.0583332-.0529166-1.3493748-1.0847915m3.4395821-4.8418744c.555625-.555625.6879166-.9524999.6879166-2.010833 0-1.8520832-.9260416-2.7781247-2.7781239-2.7781247-1.0847915 0-1.4287498.1322916-2.0372914.7408332-.6085416.5820833-.7408332.9524999-.7408332 2.010833 0 1.349375.5291666 2.2224998 1.5874998 2.6987497.9260415.396875 2.5399989.079375 3.2808321-.6614582" />
</svg>