<?xml version="1.0" encoding="UTF-8" standalone="no"?>
<svg
   class="img-fluid"
   width="60"
   height="59.997726"
   viewBox="0 0 600 599.97726"
   version="1.1"
   id="svg8"
   sodipodi:docname="leave.svg"
   inkscape:version="1.4.2 (f4327f4, 2025-05-13)"
   xmlns:inkscape="http://www.inkscape.org/namespaces/inkscape"
   xmlns:sodipodi="http://sodipodi.sourceforge.net/DTD/sodipodi-0.dtd"
   xmlns="http://www.w3.org/2000/svg"
   xmlns:svg="http://www.w3.org/2000/svg">
  <defs
     id="defs8" />
  <sodipodi:namedview
     id="namedview8"
     pagecolor="#ffffff"
     bordercolor="#000000"
     borderopacity="0.25"
     inkscape:showpageshadow="2"
     inkscape:pageopacity="0.0"
     inkscape:pagecheckerboard="0"
     inkscape:deskcolor="#d1d1d1"
     inkscape:zoom="2.6618491"
     inkscape:cx="99.554855"
     inkscape:cy="32.871886"
     inkscape:window-width="1920"
     inkscape:window-height="1001"
     inkscape:window-x="-9"
     inkscape:window-y="-9"
     inkscape:window-maximized="1"
     inkscape:current-layer="g5" />
  <g
     fill="#f9fafc"
     id="g5"
     transform="translate(-600,-6890.0227)" />
  <path
     d="m -50.000004,-5655.0227 c -9,-11 -11,-36 -7,-82 4,-59 9,-71 36,-95 20,-18 43,-28 64.000004,-28 203,-4 407,0 427,8 45,17 62,46 67,116 4,45 2,70 -7,81 -19,23 -561.000004,23 -580.000004,0 m 478.000004,-98 3,-38 -58,3 c -57,3 -58,4 -59,33 -1,38 3,40 63,40 h 48 z m -393.000004,-161 c -18,-13 -20,-26 -20,-161 0,-119 3,-147 15,-155 20.000004,-13 400.000004,-13 420.000004,0 12,8 15,37 15,159 0,82 -4,153 -8,158 -5,4 -97,9 -205,11 -161,2 -201,0 -217.000004,-12 M 390,-6075.0227 v -95 H 90 v 190 h 300 z"
     style="fill:#ffffff;fill-opacity:1"
     fill="#25ABFF"
     id="path6" />
  <path
     d="m 6.032416,-5733.7309 c -9,-11 -11,-36 -7,-82 4,-59 9,-71 36,-95 20.000004,-18 43.000004,-28 64.000004,-28 203,-4 406.99998,0 426.99998,8 45,17 62,46 67,116 4,45 2,70 -7,81 -19,23 -560.999984,23 -579.999984,0 m 477.999984,-98 3,-38 -58,3 c -56.99998,3 -57.99998,4 -58.99998,33 -1,38 3,40 62.99998,40 h 48 z m -392.99998,-161 c -18,-13 -20,-26 -20,-161 0,-119 3,-147 15,-155 20,-13 399.99998,-13 419.99998,0 12,8 15,37 15,159 0,82 -4,153 -8,158 -5,4 -97,9 -204.99998,11 -161,2 -201,0 -217,-12 m 354.99998,-161 v -95 H 146.03242 v 190 H 446.0324 Z"
     style="fill:#ffffff;fill-opacity:1"
     fill="#25ABFF"
     id="path6-9" />
  <g
     fill="#ee3d31"
     id="g8"
     transform="translate(-600,-6890.0227)">
    <path
       d="M 707,7383 600,7275 v -180 c 0,-128 4,-185 12,-193 13,-13 324,-17 344,-4 7,4 14,36 15,72 l 4,65 -37,3 -38,3 v -79 l -80,-1 c -44,-1 -80,2 -80,7 0,4 27,34 60,67 l 60,59 v 192 c 0,197 -1,204 -39,204 -4,0 -56,-48 -114,-107 m 83,-140 v -107 l -52,-53 c -29,-29 -55,-53 -58,-53 -3,0 -4,51 -2,112 l 3,113 47,48 c 25,26 50,47 54,47 4,0 8,-48 8,-107"
       id="path7" />
    <path
       d="m 1020,7325 -23,-24 37,-36 36,-35 H 900 v -80 h 80 c 44,0 80,-3 80,-7 0,-4 -14,-21 -30,-38 l -30,-31 25,-24 26,-24 74,74 c 41,41 75,81 75,88 0,14 -137,162 -150,162 -4,0 -17,-11 -30,-25"
       id="path8" />
  </g>
</svg>
